<svg width="29" height="27" viewBox="0 0 29 27" fill="none" xmlns="http://www.w3.org/2000/svg">
<path d="M3 24V3C3 3 3 3.55625 3 4.66875C3 5.78125 3 7.225 3 9V18C3 19.775 3 21.2188 3 22.3312C3 23.4437 3 24 3 24ZM3 27C2.175 27 1.46875 26.7062 0.88125 26.1187C0.29375 25.5312 0 24.825 0 24V3C0 2.175 0.29375 1.46875 0.88125 0.88125C1.46875 0.29375 2.175 0 3 0H24C24.825 0 25.5312 0.29375 26.1187 0.88125C26.7062 1.46875 27 2.175 27 3V6.75H24V3H3V24H24V20.25H27V24C27 24.825 26.7062 25.5312 26.1187 26.1187C25.5312 26.7062 24.825 27 24 27H3ZM15 21C14.175 21 13.4688 20.7062 12.8813 20.1187C12.2938 19.5312 12 18.825 12 18V9C12 8.175 12.2938 7.46875 12.8813 6.88125C13.4688 6.29375 14.175 6 15 6H25.5C26.325 6 27.0312 6.29375 27.6187 6.88125C28.2062 7.46875 28.5 8.175 28.5 9V18C28.5 18.825 28.2062 19.5312 27.6187 20.1187C27.0312 20.7062 26.325 21 25.5 21H15ZM25.5 18V9H15V18H25.5ZM19.5 15.75C20.125 15.75 20.6562 15.5312 21.0938 15.0938C21.5312 14.6562 21.75 14.125 21.75 13.5C21.75 12.875 21.5312 12.3438 21.0938 11.9062C20.6562 11.4688 20.125 11.25 19.5 11.25C18.875 11.25 18.3438 11.4688 17.9062 11.9062C17.4688 12.3438 17.25 12.875 17.25 13.5C17.25 14.125 17.4688 14.6562 17.9062 15.0938C18.3438 15.5312 18.875 15.75 19.5 15.75Z" fill="#1A227F"/>
</svg>
