<svg width="24" height="24" viewBox="0 0 24 24" fill="none" xmlns="http://www.w3.org/2000/svg">
<path d="M5.99756 21.9908V3.99831C5.99756 3.4681 6.20818 2.9596 6.5831 2.58469C6.95802 2.20977 7.46651 1.99915 7.99673 1.99915H15.9934C16.5236 1.99915 17.0321 2.20977 17.407 2.58469C17.7819 2.9596 17.9926 3.4681 17.9926 3.99831V21.9908H5.99756Z" stroke="#99A1AF" stroke-width="1.99917" stroke-linecap="round" stroke-linejoin="round"/>
<path d="M5.99736 11.995H3.99819C3.46798 11.995 2.95948 12.2056 2.58457 12.5805C2.20965 12.9555 1.99902 13.464 1.99902 13.9942V19.9917C1.99902 20.5219 2.20965 21.0304 2.58457 21.4053C2.95948 21.7802 3.46798 21.9908 3.99819 21.9908H5.99736" stroke="#99A1AF" stroke-width="1.99917" stroke-linecap="round" stroke-linejoin="round"/>
<path d="M17.9927 8.99622H19.9918C20.5221 8.99622 21.0306 9.20684 21.4055 9.58176C21.7804 9.95668 21.991 10.4652 21.991 10.9954V19.9916C21.991 20.5218 21.7804 21.0303 21.4055 21.4053C21.0306 21.7802 20.5221 21.9908 19.9918 21.9908H17.9927" stroke="#99A1AF" stroke-width="1.99917" stroke-linecap="round" stroke-linejoin="round"/>
<path d="M9.99561 5.99756H13.9939" stroke="#99A1AF" stroke-width="1.99917" stroke-linecap="round" stroke-linejoin="round"/>
<path d="M9.99561 9.99585H13.9939" stroke="#99A1AF" stroke-width="1.99917" stroke-linecap="round" stroke-linejoin="round"/>
<path d="M9.99561 13.9941H13.9939" stroke="#99A1AF" stroke-width="1.99917" stroke-linecap="round" stroke-linejoin="round"/>
<path d="M9.99561 17.9926H13.9939" stroke="#99A1AF" stroke-width="1.99917" stroke-linecap="round" stroke-linejoin="round"/>
</svg>
