<svg width="20" height="20" viewBox="0 0 20 20" fill="none" xmlns="http://www.w3.org/2000/svg">
<g clip-path="url(#clip0_20_917)">
<path d="M9.99561 1.66602V18.3257" stroke="#00A63E" stroke-width="1.66597" stroke-linecap="round" stroke-linejoin="round"/>
<path d="M14.1609 4.16504H7.9135C7.14027 4.16504 6.39872 4.4722 5.85196 5.01896C5.30521 5.56571 4.99805 6.30727 4.99805 7.08049C4.99805 7.85372 5.30521 8.59527 5.85196 9.14203C6.39872 9.68878 7.14027 9.99594 7.9135 9.99594H12.0784C12.8517 9.99594 13.5932 10.3031 14.14 10.8499C14.6867 11.3966 14.9939 12.1382 14.9939 12.9114C14.9939 13.6846 14.6867 14.4262 14.14 14.9729C13.5932 15.5197 12.8517 15.8268 12.0784 15.8268H4.99805" stroke="#00A63E" stroke-width="1.66597" stroke-linecap="round" stroke-linejoin="round"/>
</g>
<defs>
<clipPath id="clip0_20_917">
<rect width="19.9917" height="19.9917" fill="white"/>
</clipPath>
</defs>
</svg>
