<svg width="32" height="32" viewBox="0 0 32 32" fill="none" xmlns="http://www.w3.org/2000/svg">
<path d="M0 15.9933C0 7.16046 7.16046 0 15.9933 0C24.8262 0 31.9867 7.16046 31.9867 15.9933C31.9867 24.8262 24.8262 31.9867 15.9933 31.9867C7.16046 31.9867 0 24.8262 0 15.9933Z" fill="#1A227F"/>
<path d="M21.9906 17.9926V20.6581C21.9906 21.0116 21.8502 21.3506 21.6002 21.6005C21.3503 21.8505 21.0113 21.9909 20.6578 21.9909H11.3284C10.9749 21.9909 10.6359 21.8505 10.386 21.6005C10.136 21.3506 9.99561 21.0116 9.99561 20.6581V17.9926" stroke="white" stroke-width="1.33278" stroke-linecap="round" stroke-linejoin="round"/>
<path d="M19.325 13.3278L15.9931 9.99585L12.6611 13.3278" stroke="white" stroke-width="1.33278" stroke-linecap="round" stroke-linejoin="round"/>
<path d="M15.9932 9.99585V17.9925" stroke="white" stroke-width="1.33278" stroke-linecap="round" stroke-linejoin="round"/>
</svg>
