<svg width="20" height="20" viewBox="0 0 20 20" fill="none" xmlns="http://www.w3.org/2000/svg">
<path d="M9.99756 2.49951H4.16536C3.72342 2.49951 3.29958 2.67507 2.98708 2.98757C2.67458 3.30007 2.49902 3.72391 2.49902 4.16585V15.8302C2.49902 16.2722 2.67458 16.696 2.98708 17.0085C3.29958 17.321 3.72342 17.4966 4.16536 17.4966H15.8298C16.2717 17.4966 16.6955 17.321 17.008 17.0085C17.3205 16.696 17.4961 16.2722 17.4961 15.8302V9.99805" stroke="#155DFC" stroke-width="1.66634" stroke-linecap="round" stroke-linejoin="round"/>
<path d="M15.3096 2.1871C15.641 1.85564 16.0906 1.66943 16.5593 1.66943C17.0281 1.66943 17.4776 1.85564 17.8091 2.1871C18.1406 2.51856 18.3268 2.96811 18.3268 3.43685C18.3268 3.9056 18.1406 4.35515 17.8091 4.68661L10.2997 12.1968C10.1019 12.3945 9.85749 12.5392 9.58904 12.6176L7.19534 13.3174C7.12365 13.3383 7.04765 13.3396 6.97531 13.3211C6.90296 13.3025 6.83693 13.2649 6.78412 13.2121C6.73132 13.1593 6.69368 13.0932 6.67514 13.0209C6.65661 12.9485 6.65786 12.8726 6.67877 12.8009L7.37864 10.4072C7.45739 10.1389 7.60237 9.89481 7.80022 9.6973L15.3096 2.1871Z" stroke="#155DFC" stroke-width="1.66634" stroke-linecap="round" stroke-linejoin="round"/>
</svg>
