<svg width="22" height="22" viewBox="0 0 22 22" fill="none" xmlns="http://www.w3.org/2000/svg">
<path d="M13.591 9.64509C13.591 7.95017 12.217 6.57617 10.522 6.57617C8.82712 6.57617 7.45312 7.95017 7.45312 9.64509C7.45312 11.34 8.82712 12.714 10.522 12.714C12.217 12.714 13.591 11.34 13.591 9.64509Z" stroke="white" stroke-width="1.31" stroke-linecap="round" stroke-linejoin="round"/>
<path d="M13.5758 9.95202C13.8581 10.0376 14.1576 10.0836 14.4678 10.0836C16.1627 10.0836 17.5367 8.70964 17.5367 7.01472C17.5367 5.3198 16.1627 3.9458 14.4678 3.9458C12.8764 3.9458 11.5679 5.15706 11.4141 6.70794" stroke="white" stroke-width="1.31" stroke-linecap="round" stroke-linejoin="round"/>
<path d="M9.62999 6.70794C9.4761 5.15706 8.16762 3.9458 6.57624 3.9458C4.88132 3.9458 3.50732 5.3198 3.50732 7.01472C3.50732 8.70964 4.88132 10.0836 6.57624 10.0836C6.88647 10.0836 7.18595 10.0376 7.46822 9.95202" stroke="white" stroke-width="1.31" stroke-linecap="round" stroke-linejoin="round"/>
<path d="M19.2904 14.4677C19.2904 12.0464 17.1312 10.0835 14.4678 10.0835" stroke="white" stroke-width="1.31" stroke-linecap="round" stroke-linejoin="round"/>
<path d="M15.3444 17.098C15.3444 14.6767 13.1853 12.7139 10.5218 12.7139C7.85836 12.7139 5.69922 14.6767 5.69922 17.098" stroke="white" stroke-width="1.31" stroke-linecap="round" stroke-linejoin="round"/>
<path d="M6.57649 10.0835C3.91305 10.0835 1.75391 12.0464 1.75391 14.4677" stroke="white" stroke-width="1.31" stroke-linecap="round" stroke-linejoin="round"/>
</svg>
