<svg width="48" height="48" viewBox="0 0 48 48" fill="none" xmlns="http://www.w3.org/2000/svg">
<path d="M31.9984 41.9979V37.9981C31.9984 35.8765 31.1556 33.8418 29.6554 32.3416C28.1552 30.8413 26.1205 29.9985 23.9989 29.9985H11.9996C9.87794 29.9985 7.84322 30.8413 6.34302 32.3416C4.84281 33.8418 4 35.8765 4 37.9981V41.9979" stroke="#D1D5DC" stroke-width="3.99978" stroke-linecap="round" stroke-linejoin="round"/>
<path d="M17.9991 21.9986C22.4171 21.9986 25.9986 18.4171 25.9986 13.9991C25.9986 9.58103 22.4171 5.99951 17.9991 5.99951C13.581 5.99951 9.99951 9.58103 9.99951 13.9991C9.99951 18.4171 13.581 21.9986 17.9991 21.9986Z" stroke="#D1D5DC" stroke-width="3.99978" stroke-linecap="round" stroke-linejoin="round"/>
<path d="M43.9977 41.9976V37.9979C43.9964 36.2254 43.4065 34.5036 42.3205 33.1028C41.2346 31.7019 39.7142 30.7014 37.998 30.2583" stroke="#D1D5DC" stroke-width="3.99978" stroke-linecap="round" stroke-linejoin="round"/>
<path d="M31.998 6.25977C33.7188 6.70034 35.2439 7.70109 36.3331 9.10423C37.4222 10.5074 38.0134 12.2331 38.0134 14.0093C38.0134 15.7856 37.4222 17.5113 36.3331 18.9144C35.2439 20.3176 33.7188 21.3183 31.998 21.7589" stroke="#D1D5DC" stroke-width="3.99978" stroke-linecap="round" stroke-linejoin="round"/>
</svg>
