<svg width="20" height="20" viewBox="0 0 20 20" fill="none" xmlns="http://www.w3.org/2000/svg">
<g clip-path="url(#clip0_24_4034)">
<path d="M9.99772 18.3299C14.5992 18.3299 18.3294 14.5997 18.3294 9.99821C18.3294 5.39673 14.5992 1.6665 9.99772 1.6665C5.39625 1.6665 1.66602 5.39673 1.66602 9.99821C1.66602 14.5997 5.39625 18.3299 9.99772 18.3299Z" stroke="#4A5565" stroke-width="1.66634" stroke-linecap="round" stroke-linejoin="round"/>
<path d="M7.57324 7.49868C7.76912 6.94185 8.15576 6.47231 8.66466 6.17322C9.17356 5.87413 9.77189 5.7648 10.3537 5.8646C10.9355 5.96439 11.4632 6.26686 11.8433 6.71844C12.2234 7.17002 12.4315 7.74157 12.4306 8.33185C12.4306 9.99819 9.93111 10.8314 9.93111 10.8314" stroke="#4A5565" stroke-width="1.66634" stroke-linecap="round" stroke-linejoin="round"/>
<path d="M9.99805 14.1641H10.0064" stroke="#4A5565" stroke-width="1.66634" stroke-linecap="round" stroke-linejoin="round"/>
</g>
<defs>
<clipPath id="clip0_24_4034">
<rect width="19.9961" height="19.9961" fill="white"/>
</clipPath>
</defs>
</svg>
