<svg width="22" height="22" viewBox="0 0 22 22" fill="none" xmlns="http://www.w3.org/2000/svg">
<path fill-rule="evenodd" clip-rule="evenodd" d="M12.5175 2.44685C11.1413 1.48263 9.02883 1.53523 7.70522 2.5608L3.31367 5.98814C2.43711 6.67186 1.74463 8.07435 1.74463 9.17881V15.2271C1.74463 17.4623 3.5591 19.2855 5.79433 19.2855H15.2436C17.4788 19.2855 19.2933 17.4711 19.2933 15.2358V9.29277C19.2933 8.10941 18.5307 6.65433 17.5665 5.97938L12.5175 2.44685ZM10.519 16.4367C10.1596 16.4367 9.86156 16.1387 9.86156 15.7793V13.1496C9.86156 12.7902 10.1596 12.4922 10.519 12.4922C10.8784 12.4922 11.1764 12.7902 11.1764 13.1496V15.7793C11.1764 16.1387 10.8784 16.4367 10.519 16.4367Z" fill="#1A227F"/>
</svg>
