<svg width="20" height="20" viewBox="0 0 20 20" fill="none" xmlns="http://www.w3.org/2000/svg">
<g clip-path="url(#clip0_23_3799)">
<path d="M18.1636 8.33178C18.5441 10.1992 18.273 12.1406 17.3953 13.8322C16.5177 15.5238 15.0866 16.8635 13.3408 17.6277C11.595 18.392 9.63998 18.5346 7.80173 18.0319C5.96349 17.5291 4.35315 16.4114 3.23927 14.865C2.1254 13.3187 1.5753 11.4372 1.68073 9.53436C1.78617 7.63153 2.54075 5.82234 3.81864 4.40852C5.09653 2.9947 6.82049 2.06169 8.70303 1.76511C10.5856 1.46852 12.5129 1.82627 14.1636 2.7787" stroke="#1A227F" stroke-width="1.66634" stroke-linecap="round" stroke-linejoin="round"/>
<path d="M7.49805 9.16471L9.99756 11.6642L18.3293 3.33252" stroke="#1A227F" stroke-width="1.66634" stroke-linecap="round" stroke-linejoin="round"/>
</g>
<defs>
<clipPath id="clip0_23_3799">
<rect width="19.9961" height="19.9961" fill="white"/>
</clipPath>
</defs>
</svg>
