<svg width="20" height="20" viewBox="0 0 20 20" fill="none" xmlns="http://www.w3.org/2000/svg">
<g clip-path="url(#clip0_45_490)">
<path d="M14.9941 6.66393C16.3742 6.66393 17.493 5.54511 17.493 4.16497C17.493 2.78484 16.3742 1.66602 14.9941 1.66602C13.6139 1.66602 12.4951 2.78484 12.4951 4.16497C12.4951 5.54511 13.6139 6.66393 14.9941 6.66393Z" stroke="white" stroke-width="1.66597" stroke-linecap="round" stroke-linejoin="round"/>
<path d="M4.99798 12.495C6.37812 12.495 7.49694 11.3762 7.49694 9.99603C7.49694 8.61589 6.37812 7.49707 4.99798 7.49707C3.61785 7.49707 2.49902 8.61589 2.49902 9.99603C2.49902 11.3762 3.61785 12.495 4.99798 12.495Z" stroke="white" stroke-width="1.66597" stroke-linecap="round" stroke-linejoin="round"/>
<path d="M14.9941 18.3256C16.3742 18.3256 17.493 17.2067 17.493 15.8266C17.493 14.4465 16.3742 13.3276 14.9941 13.3276C13.6139 13.3276 12.4951 14.4465 12.4951 15.8266C12.4951 17.2067 13.6139 18.3256 14.9941 18.3256Z" stroke="white" stroke-width="1.66597" stroke-linecap="round" stroke-linejoin="round"/>
<path d="M7.15527 11.2534L12.8446 14.5687" stroke="white" stroke-width="1.66597" stroke-linecap="round" stroke-linejoin="round"/>
<path d="M12.8362 5.42285L7.15527 8.73814" stroke="white" stroke-width="1.66597" stroke-linecap="round" stroke-linejoin="round"/>
</g>
<defs>
<clipPath id="clip0_45_490">
<rect width="19.9917" height="19.9917" fill="white"/>
</clipPath>
</defs>
</svg>
