<svg width="16" height="16" viewBox="0 0 16 16" fill="none" xmlns="http://www.w3.org/2000/svg">
<path d="M7.70433 2.1764C7.73309 2.12416 7.77535 2.08059 7.82669 2.05025C7.87803 2.01991 7.93657 2.00391 7.99621 2.00391C8.05584 2.00391 8.11438 2.01991 8.16572 2.05025C8.21706 2.08059 8.25932 2.12416 8.28808 2.1764L10.2553 5.91084C10.3022 5.99731 10.3677 6.07233 10.447 6.1305C10.5263 6.18866 10.6176 6.22854 10.7141 6.24727C10.8107 6.266 10.9102 6.26312 11.0056 6.23882C11.1009 6.21453 11.1897 6.16943 11.2655 6.10676L14.1157 3.66511C14.1704 3.62061 14.2378 3.59462 14.3082 3.59088C14.3786 3.58713 14.4484 3.60583 14.5076 3.64428C14.5667 3.68273 14.6121 3.73895 14.6372 3.80485C14.6623 3.87074 14.6659 3.94291 14.6474 4.01097L12.7589 10.8388C12.7203 10.9785 12.6373 11.1019 12.5223 11.1901C12.4074 11.2784 12.2668 11.3268 12.1218 11.3279H3.87126C3.72621 11.3269 3.58545 11.2786 3.47035 11.1903C3.35525 11.102 3.2721 10.9786 3.23352 10.8388L1.34564 4.01163C1.32715 3.94358 1.33073 3.87141 1.35587 3.80551C1.381 3.73962 1.4264 3.6834 1.48552 3.64495C1.54464 3.6065 1.61444 3.5878 1.68486 3.59154C1.75529 3.59528 1.82271 3.62128 1.87742 3.66578L4.7269 6.10743C4.80273 6.17009 4.8915 6.2152 4.98683 6.23949C5.08217 6.26378 5.18169 6.26667 5.27827 6.24794C5.37485 6.22921 5.46608 6.18933 5.54542 6.13116C5.62476 6.07299 5.69023 5.99798 5.73715 5.91151L7.70433 2.1764Z" stroke="#F0B100" stroke-width="1.33278" stroke-linecap="round" stroke-linejoin="round"/>
<path d="M3.33203 13.9941H12.6615" stroke="#F0B100" stroke-width="1.33278" stroke-linecap="round" stroke-linejoin="round"/>
</svg>
