<svg width="22" height="22" viewBox="0 0 22 22" fill="none" xmlns="http://www.w3.org/2000/svg">
<path d="M9 18.4077C9.15387 18.6742 9.37518 18.8955 9.64168 19.0493C9.90818 19.2032 10.2105 19.2842 10.5182 19.2842C10.8259 19.2842 11.1282 19.2032 11.3947 19.0493C11.6612 18.8955 11.8825 18.6742 12.0364 18.4077" stroke="white" stroke-width="1.31481" stroke-linecap="round" stroke-linejoin="round"/>
<path d="M2.85988 13.4335C2.74537 13.559 2.6698 13.715 2.64236 13.8827C2.61493 14.0504 2.63681 14.2224 2.70535 14.3779C2.77388 14.5333 2.88612 14.6655 3.0284 14.7584C3.17068 14.8512 3.33688 14.9007 3.50678 14.9008H17.5317C17.7016 14.9009 17.8678 14.8516 18.0102 14.7589C18.1526 14.6662 18.2649 14.5342 18.3337 14.3788C18.4024 14.2235 18.4245 14.0515 18.3973 13.8838C18.37 13.7161 18.2947 13.56 18.1804 13.4343C17.0145 12.2326 15.7786 10.9554 15.7786 7.01179C15.7786 5.61692 15.2245 4.27919 14.2382 3.29287C13.2518 2.30655 11.9141 1.75244 10.5192 1.75244C9.12438 1.75244 7.78664 2.30655 6.80032 3.29287C5.814 4.27919 5.25989 5.61692 5.25989 7.01179C5.25989 10.9554 4.02307 12.2326 2.85988 13.4335Z" stroke="white" stroke-width="1.31481" stroke-linecap="round" stroke-linejoin="round"/>
</svg>
