<svg width="22" height="22" viewBox="0 0 22 22" fill="none" xmlns="http://www.w3.org/2000/svg">
<path d="M9.00049 18.4077C9.15436 18.6742 9.37567 18.8955 9.64217 19.0493C9.90867 19.2032 10.211 19.2842 10.5187 19.2842C10.8264 19.2842 11.1287 19.2032 11.3952 19.0493C11.6617 18.8955 11.883 18.6742 12.0369 18.4077" fill="#1A227F"/>
<path d="M9.00049 18.4077C9.15436 18.6742 9.37567 18.8955 9.64217 19.0493C9.90867 19.2032 10.211 19.2842 10.5187 19.2842C10.8264 19.2842 11.1287 19.2032 11.3952 19.0493C11.6617 18.8955 11.883 18.6742 12.0369 18.4077" stroke="#1A227F" stroke-width="1.31481" stroke-linecap="round" stroke-linejoin="round"/>
<path d="M2.85841 13.4339C2.7439 13.5595 2.66833 13.7155 2.6409 13.8832C2.61346 14.0509 2.63535 14.2229 2.70388 14.3783C2.77242 14.5338 2.88465 14.666 3.02694 14.7588C3.16922 14.8517 3.33542 14.9012 3.50531 14.9013H17.5302C17.7001 14.9014 17.8664 14.8521 18.0087 14.7594C18.1511 14.6667 18.2635 14.5347 18.3322 14.3793C18.4009 14.224 18.423 14.052 18.3958 13.8843C18.3686 13.7166 18.2932 13.5605 18.1789 13.4348C17.0131 12.2331 15.7771 10.9559 15.7771 7.01228C15.7771 5.61741 15.223 4.27968 14.2367 3.29336C13.2504 2.30704 11.9126 1.75293 10.5178 1.75293C9.12291 1.75293 7.78518 2.30704 6.79886 3.29336C5.81254 4.27968 5.25843 5.61741 5.25843 7.01228C5.25843 10.9559 4.0216 12.2331 2.85841 13.4339Z" fill="#1A227F" stroke="#1A227F" stroke-width="1.31481" stroke-linecap="round" stroke-linejoin="round"/>
</svg>
