<svg width="22" height="22" viewBox="0 0 22 22" fill="none" xmlns="http://www.w3.org/2000/svg">
<path d="M1.75342 3.94434H7.67664C8.37407 3.94434 9.04296 4.22139 9.53612 4.71455L12.2721 7.45057" stroke="white" stroke-width="1.31481" stroke-linecap="round" stroke-linejoin="round"/>
<path d="M4.38309 11.833H1.75342" stroke="white" stroke-width="1.31481" stroke-linecap="round" stroke-linejoin="round"/>
<path d="M7.4492 6.57373L9.20231 8.32685C9.68644 8.81097 9.68644 9.59584 9.20231 10.08C8.71821 10.5641 7.93331 10.5641 7.4492 10.08L6.13436 8.76513C5.37991 9.51958 4.18552 9.60443 3.33195 8.96428L3.06641 8.76513" stroke="white" stroke-width="1.31481" stroke-linecap="round" stroke-linejoin="round"/>
<path d="M4.38232 9.64208V13.5866C4.38232 15.2394 4.38232 16.0658 4.8958 16.5793C5.40927 17.0928 6.2357 17.0928 7.88856 17.0928H15.7776C17.4304 17.0928 18.2568 17.0928 18.7703 16.5793C19.2838 16.0658 19.2838 15.2394 19.2838 13.5866V10.9569C19.2838 9.30408 19.2838 8.47763 18.7703 7.96416C18.2568 7.45068 17.4304 7.45068 15.7776 7.45068H8.32684" stroke="white" stroke-width="1.31481" stroke-linecap="round" stroke-linejoin="round"/>
<path d="M13.3668 12.2708C13.3668 13.118 12.68 13.8048 11.8328 13.8048C10.9856 13.8048 10.2988 13.118 10.2988 12.2708C10.2988 11.4236 10.9856 10.7368 11.8328 10.7368C12.68 10.7368 13.3668 11.4236 13.3668 12.2708Z" stroke="white" stroke-width="1.31481" stroke-linecap="round" stroke-linejoin="round"/>
</svg>
