<svg width="22" height="22" viewBox="0 0 22 22" fill="none" xmlns="http://www.w3.org/2000/svg">
<path d="M1.75391 3.94482H7.67713C8.37456 3.94482 9.04345 4.22188 9.5366 4.71504L12.2726 7.45106" stroke="#1A227F" stroke-width="1.31481" stroke-linecap="round" stroke-linejoin="round"/>
<path d="M4.38358 11.8335H1.75391" stroke="#1A227F" stroke-width="1.31481" stroke-linecap="round" stroke-linejoin="round"/>
<path d="M4.38281 9.64257V13.5871C4.38281 15.2399 4.38281 16.0663 4.89629 16.5798C5.40976 17.0933 6.23619 17.0933 7.88905 17.0933H15.7781C17.4309 17.0933 18.2573 17.0933 18.7708 16.5798C19.2843 16.0663 19.2843 15.2399 19.2843 13.5871V10.9574C19.2843 9.30457 19.2843 8.47812 18.7708 7.96465C18.2573 7.45117 17.4309 7.45117 15.7781 7.45117H8.32732" fill="#1A227F"/>
<path d="M4.38281 9.64257V13.5871C4.38281 15.2399 4.38281 16.0663 4.89629 16.5798C5.40976 17.0933 6.23619 17.0933 7.88905 17.0933H15.7781C17.4309 17.0933 18.2573 17.0933 18.7708 16.5798C19.2843 16.0663 19.2843 15.2399 19.2843 13.5871V10.9574C19.2843 9.30457 19.2843 8.47812 18.7708 7.96465C18.2573 7.45117 17.4309 7.45117 15.7781 7.45117H8.32732" stroke="#1A227F" stroke-width="1.31481" stroke-linecap="round" stroke-linejoin="round"/>
<path d="M13.3678 12.2723C13.3678 13.1195 12.681 13.8062 11.8338 13.8062C10.9866 13.8062 10.2998 13.1195 10.2998 12.2723C10.2998 11.4251 10.9866 10.7383 11.8338 10.7383C12.681 10.7383 13.3678 11.4251 13.3678 12.2723Z" stroke="white" stroke-width="1.31481" stroke-linecap="round" stroke-linejoin="round"/>
<path d="M7.45115 6.57422L9.20427 8.32734C9.68839 8.81146 9.68839 9.59633 9.20427 10.0805C8.72016 10.5646 7.93526 10.5646 7.45115 10.0805L6.13631 8.76561C5.38187 9.52007 4.18747 9.60492 3.3339 8.96477L3.06836 8.76561" stroke="white" stroke-width="1.31481" stroke-linecap="round" stroke-linejoin="round"/>
</svg>
