<svg width="24" height="24" viewBox="0 0 24 24" fill="none" xmlns="http://www.w3.org/2000/svg">
<path d="M2.99902 11.9959C2.99902 13.7753 3.52668 15.5148 4.51527 16.9943C5.50386 18.4738 6.90898 19.627 8.55294 20.3079C10.1969 20.9889 12.0059 21.167 13.7511 20.8199C15.4963 20.4727 17.0994 19.6159 18.3576 18.3576C19.6159 17.0994 20.4727 15.4963 20.8199 13.7511C21.167 12.0059 20.9889 10.1969 20.3079 8.55294C19.627 6.90898 18.4738 5.50386 16.9943 4.51527C15.5148 3.52668 13.7753 2.99902 11.9959 2.99902C9.48072 3.00849 7.06658 3.9899 5.25824 5.73807L2.99902 7.99728" stroke="white" stroke-width="1.9993" stroke-linecap="round" stroke-linejoin="round"/>
<path d="M2.99902 2.99902V7.99728H7.99728" stroke="white" stroke-width="1.9993" stroke-linecap="round" stroke-linejoin="round"/>
<path d="M11.9961 6.99756V11.9958L15.9947 13.9951" stroke="white" stroke-width="1.9993" stroke-linecap="round" stroke-linejoin="round"/>
</svg>
