<svg width="20" height="20" viewBox="0 0 20 20" fill="none" xmlns="http://www.w3.org/2000/svg">
<g clip-path="url(#clip0_24_3983)">
<path d="M18.33 14.0975V16.597C18.3309 16.829 18.2834 17.0587 18.1904 17.2713C18.0974 17.4839 17.9611 17.6748 17.7901 17.8316C17.6191 17.9885 17.4173 18.1079 17.1975 18.1823C16.9777 18.2566 16.7447 18.2842 16.5136 18.2633C13.9498 17.9848 11.4871 17.1087 9.32338 15.7055C7.3103 14.4263 5.60356 12.7196 4.32436 10.7065C2.91629 8.53291 2.04001 6.05822 1.76653 3.4829C1.74571 3.2525 1.77309 3.02029 1.84693 2.80105C1.92077 2.58181 2.03945 2.38035 2.19542 2.2095C2.35138 2.03864 2.54121 1.90213 2.75283 1.80866C2.96444 1.71519 3.1932 1.6668 3.42454 1.66658H5.92405C6.32839 1.66261 6.72039 1.80579 7.02697 2.06945C7.33355 2.33311 7.5338 2.69925 7.59039 3.09964C7.69589 3.89954 7.89154 4.68493 8.17361 5.44085C8.28571 5.73906 8.30997 6.06315 8.24352 6.37473C8.17707 6.68631 8.02269 6.97231 7.79868 7.19884L6.74056 8.25696C7.92662 10.3428 9.6537 12.0699 11.7396 13.256L12.7977 12.1979C13.0242 11.9739 13.3102 11.8195 13.6218 11.753C13.9334 11.6866 14.2575 11.7108 14.5557 11.8229C15.3116 12.105 16.097 12.3007 16.8969 12.4062C17.3016 12.4632 17.6713 12.6671 17.9355 12.979C18.1997 13.2908 18.3401 13.6889 18.33 14.0975Z" stroke="#4A5565" stroke-width="1.66634" stroke-linecap="round" stroke-linejoin="round"/>
</g>
<defs>
<clipPath id="clip0_24_3983">
<rect width="19.9961" height="19.9961" fill="white"/>
</clipPath>
</defs>
</svg>
