<svg width="22" height="22" viewBox="0 0 22 22" fill="none" xmlns="http://www.w3.org/2000/svg">
<path d="M6.35547 5.91658C6.35547 8.16933 8.11735 9.99257 10.4139 10.0715C10.4841 10.0627 10.5542 10.0627 10.6068 10.0715C10.6243 10.0715 10.6331 10.0715 10.6506 10.0715C10.6594 10.0715 10.6594 10.0715 10.6681 10.0715C12.9121 9.99257 14.674 8.16933 14.6828 5.91658C14.6828 3.62 12.8157 1.75293 10.5191 1.75293C8.22254 1.75293 6.35547 3.62 6.35547 5.91658Z" fill="#1A227F"/>
<path d="M6.07545 12.4025C4.96222 13.1476 4.34863 14.1556 4.34863 15.2338C4.34863 16.3119 4.96222 17.3112 6.06669 18.0475C7.29387 18.8715 8.90673 19.2835 10.5196 19.2835C12.1325 19.2835 13.7453 18.8715 14.9725 18.0475C16.077 17.3024 16.6906 16.3032 16.6906 15.2162C16.6818 14.1381 16.077 13.1388 14.9725 12.4025C12.5269 10.7721 8.53858 10.7721 6.07545 12.4025Z" fill="#1A227F"/>
</svg>
