<svg width="20" height="20" viewBox="0 0 20 20" fill="none" xmlns="http://www.w3.org/2000/svg">
<g clip-path="url(#clip0_24_4044)">
<path d="M12.4979 1.6665H4.99935C4.55741 1.6665 4.13357 1.84206 3.82107 2.15456C3.50857 2.46706 3.33301 2.8909 3.33301 3.33284V16.6636C3.33301 17.1055 3.50857 17.5294 3.82107 17.8419C4.13357 18.1544 4.55741 18.3299 4.99935 18.3299H14.9974C15.4393 18.3299 15.8632 18.1544 16.1757 17.8419C16.4882 17.5294 16.6637 17.1055 16.6637 16.6636V5.83236L12.4979 1.6665Z" stroke="#4A5565" stroke-width="1.66634" stroke-linecap="round" stroke-linejoin="round"/>
<path d="M11.6641 1.6665V4.99919C11.6641 5.44113 11.8396 5.86497 12.1521 6.17747C12.4646 6.48997 12.8885 6.66553 13.3304 6.66553H16.6631" stroke="#4A5565" stroke-width="1.66634" stroke-linecap="round" stroke-linejoin="round"/>
<path d="M8.33138 7.49854H6.66504" stroke="#4A5565" stroke-width="1.66634" stroke-linecap="round" stroke-linejoin="round"/>
<path d="M13.3304 10.8311H6.66504" stroke="#4A5565" stroke-width="1.66634" stroke-linecap="round" stroke-linejoin="round"/>
<path d="M13.3304 14.1641H6.66504" stroke="#4A5565" stroke-width="1.66634" stroke-linecap="round" stroke-linejoin="round"/>
</g>
<defs>
<clipPath id="clip0_24_4044">
<rect width="19.9961" height="19.9961" fill="white"/>
</clipPath>
</defs>
</svg>
