<svg width="20" height="20" viewBox="0 0 20 20" fill="none" xmlns="http://www.w3.org/2000/svg">
<g clip-path="url(#clip0_24_4011)">
<path d="M16.6637 10.8313C16.6637 14.9971 13.7476 17.08 10.2816 18.2881C10.1002 18.3496 9.903 18.3467 9.72342 18.2798C6.2491 17.08 3.33301 14.9971 3.33301 10.8313V4.99907C3.33301 4.7781 3.42079 4.56618 3.57704 4.40993C3.73329 4.25368 3.94521 4.1659 4.16618 4.1659C5.83252 4.1659 7.91544 3.1661 9.36516 1.89968C9.54167 1.74887 9.76621 1.66602 9.99837 1.66602C10.2305 1.66602 10.4551 1.74887 10.6316 1.89968C12.0896 3.17443 14.1642 4.1659 15.8306 4.1659C16.0515 4.1659 16.2635 4.25368 16.4197 4.40993C16.576 4.56618 16.6637 4.7781 16.6637 4.99907V10.8313Z" stroke="#4A5565" stroke-width="1.66634" stroke-linecap="round" stroke-linejoin="round"/>
</g>
<defs>
<clipPath id="clip0_24_4011">
<rect width="19.9961" height="19.9961" fill="white"/>
</clipPath>
</defs>
</svg>
